# xmcd CD database file
#
# Track frame offsets:
#	150
#	21653
#	51152
#	87244
#	116254
#	129769
#
# Disc length: 2075 seconds
#
# Revision: 0
# Processed by: cddbd v1.5.2PL0 Copyright (c) Steve Scherf et al.
# Submitted via: CDex 1.70beta2
#
DISCID=45081906
DTITLE=michel petrucciani - Blue Note best JAZZcollection
DYEAR=2014
DGENRE=Jazz
TTITLE0=September Second
TTITLE1=El Encanto
TTITLE2=Linbo
TTITLE3=Brazilliam Suite
TTITLE4=Take The A Train
TTITLE5=Looking UP
EXTD=YEAR: 2014
EXTT0=
EXTT1=
EXTT2=
EXTT3=
EXTT4=
EXTT5=
PLAYORDER=
